<svg width="147" height="217" viewBox="0 0 147 217" fill="none" xmlns="http://www.w3.org/2000/svg">
<mask id="mask0" style="mask-type:alpha" maskUnits="userSpaceOnUse" x="-1058" y="-3" width="1203" height="807">
<rect x="-1058" y="-3" width="1203" height="807" rx="30" fill="#F84227"/>
</mask>
<g mask="url(#mask0)">
<path d="M254 58.123C254 89.5067 246.552 120.186 232.597 146.28C218.642 172.375 198.807 192.713 175.601 204.723C152.395 216.733 126.859 219.876 102.224 213.753C77.5879 207.63 54.9587 192.518 37.1974 170.326C19.4362 148.134 7.34059 119.86 2.44027 89.0797C-2.46005 58.299 0.0549702 26.394 9.6673 -2.60079C19.2796 -31.5956 35.5575 -56.3778 56.4426 -73.8137C77.3276 -91.2496 101.882 -100.556 127 -100.556V58.123H254Z" fill="#EC3E24"/>
<path d="M186 63C186 96.1371 161.376 123 131 123C100.624 123 76 96.1371 76 63C76 29.8629 100.624 3.00004 131 3.00004C161.376 3.00004 186 29.8629 186 63Z" fill="#F84227"/>
</g>
</svg>
