<svg width="188" height="81" viewBox="0 0 188 81" fill="none" xmlns="http://www.w3.org/2000/svg">
<path d="M187.433 -1.57668C187.433 9.24731 185.019 19.9653 180.33 29.9654C175.641 39.9654 168.768 49.0517 160.104 56.7054C151.44 64.3591 141.154 70.4304 129.834 74.5726C118.514 78.7147 106.381 80.8466 94.1277 80.8466C81.8747 80.8466 69.7417 78.7147 58.4215 74.5725C47.1012 70.4304 36.8153 64.3591 28.1511 56.7054C19.487 49.0517 12.6142 39.9654 7.92517 29.9654C3.23616 19.9653 0.822753 9.2473 0.822754 -1.57668L94.1277 -1.57668H187.433Z" fill="#F75444"/>
<path d="M146.761 -2.13737C146.761 4.78408 145.4 11.6378 142.755 18.0324C140.11 24.427 136.233 30.2372 131.345 35.1314C126.458 40.0257 120.656 43.908 114.27 46.5567C107.884 49.2054 101.04 50.5687 94.1277 50.5687C87.2158 50.5687 80.3715 49.2054 73.9857 46.5567C67.5999 43.908 61.7976 40.0257 56.9102 35.1314C52.0227 30.2372 48.1457 24.427 45.5006 18.0324C42.8555 11.6378 41.4941 4.78408 41.4941 -2.13738L94.1277 -2.13737H146.761Z" fill="#F84227"/>
</svg>
