<svg width="254" height="154" viewBox="0 0 254 154" fill="none" xmlns="http://www.w3.org/2000/svg">
<mask id="mask0" style="mask-type:alpha" maskUnits="userSpaceOnUse" x="0" y="0" width="254" height="154">
<rect width="254" height="154" transform="matrix(1 0 0 -1 0 154)" fill="#C4C4C4"/>
</mask>
<g mask="url(#mask0)">
<g style="mix-blend-mode:luminosity">
<path d="M204.755 112C204.755 89.7218 195.88 68.3561 180.083 52.603C164.286 36.85 142.861 28 120.52 28C98.18 28 76.7546 36.85 60.9575 52.603C45.1605 68.3561 36.2858 89.7218 36.2858 112L120.52 112H204.755Z" fill="#EAA340"/>
</g>
<path d="M159.83 112.5C159.83 106.262 158.768 100.086 156.706 94.3225C154.644 88.5596 151.621 83.3232 147.81 78.9124C144 74.5016 139.476 71.0028 134.497 68.6157C129.518 66.2286 124.182 65 118.793 65C113.403 65 108.067 66.2286 103.088 68.6157C98.1093 71.0028 93.5854 74.5016 89.7747 78.9124C85.964 83.3232 82.9412 88.5596 80.8789 94.3225C78.8166 100.086 77.7551 106.262 77.7551 112.5L118.793 112.5H159.83Z" fill="#FFB143"/>
</g>
</svg>
